<svg xmlns="http://www.w3.org/2000/svg" viewBox="0 0 1200 600" role="img" aria-labelledby="title desc">
  <title id="title">Anton TUI-LIB</title>
  <desc id="desc">Abstract terminal UI grid for Anton TUI-LIB</desc>
  <defs>
    <linearGradient id="bg" x1="0" x2="1" y1="0" y2="1">
      <stop stop-color="#0b0c10" offset="0"/>
      <stop stop-color="#111827" offset="1"/>
    </linearGradient>
    <linearGradient id="accent" x1="0" x2="1" y1="0" y2="0">
      <stop stop-color="#FDC435" offset="0"/>
      <stop stop-color="#FF8A00" offset="1"/>
    </linearGradient>
  </defs>
  <rect width="1200" height="600" fill="url(#bg)" />
  <rect x="80" y="120" width="1040" height="360" fill="none" stroke="#FDC435" stroke-width="6" stroke-dasharray="14 12" />
  <g stroke="#FDC435" stroke-width="5" stroke-dasharray="0" opacity="0.35">
    <line x1="180" y1="180" x2="1020" y2="180"/>
    <line x1="180" y1="260" x2="1020" y2="260"/>
    <line x1="180" y1="340" x2="1020" y2="340"/>
    <line x1="180" y1="420" x2="1020" y2="420"/>
    <line x1="300" y1="160" x2="300" y2="440"/>
    <line x1="460" y1="160" x2="460" y2="440"/>
    <line x1="620" y1="160" x2="620" y2="440"/>
    <line x1="780" y1="160" x2="780" y2="440"/>
    <line x1="940" y1="160" x2="940" y2="440"/>
  </g>
  <rect x="210" y="210" width="220" height="140" fill="url(#accent)" stroke="#0b0c10" stroke-width="4"/>
  <rect x="480" y="190" width="220" height="120" fill="#1f2937" stroke="#FDC435" stroke-width="4"/>
  <rect x="760" y="240" width="180" height="110" fill="#FDC435" stroke="#0b0c10" stroke-width="4"/>
  <rect x="480" y="340" width="220" height="80" fill="#FDC435" opacity="0.8" stroke="#0b0c10" stroke-width="4"/>
  <rect x="210" y="370" width="140" height="60" fill="#1f2937" stroke="#FDC435" stroke-width="4"/>
  <rect x="870" y="370" width="120" height="60" fill="#1f2937" stroke="#FDC435" stroke-width="4"/>
  <text x="100" y="80" fill="#FDC435" font-family="monospace" font-size="26">anton // tui-lib</text>
  <text x="210" y="280" fill="#0b0c10" font-family="monospace" font-size="28" font-weight="700">widgets</text>
  <text x="490" y="250" fill="#FDC435" font-family="monospace" font-size="24">layout engine</text>
  <text x="770" y="300" fill="#0b0c10" font-family="monospace" font-size="22">theme</text>
  <text x="500" y="395" fill="#0b0c10" font-family="monospace" font-size="22">event loop</text>
</svg>
