<svg xmlns="http://www.w3.org/2000/svg" viewBox="0 0 1920 1080" preserveAspectRatio="none">
  <g stroke="#1a1410" stroke-opacity="0.22" fill="none" stroke-linecap="round" stroke-linejoin="round">
    <path d="M52 72h1816v936H52z" stroke-width="1.4" />
    <path d="M84 104h1752v872H84z" stroke-width="0.9" />
    <path d="M960 36v52M960 992v52M24 540h52M1844 540h52" stroke-width="1.2" />
    <path d="M210 120c56 0 92 20 120 56 26-36 62-56 120-56" stroke-width="1.1" />
    <path d="M1710 120c-56 0-92 20-120 56-26-36-62-56-120-56" stroke-width="1.1" />
    <path d="M210 960c56 0 92-20 120-56 26 36 62 56 120 56" stroke-width="1.1" />
    <path d="M1710 960c-56 0-92-20-120-56-26 36-62 56-120 56" stroke-width="1.1" />
  </g>
</svg>
