<svg viewBox="0 0 400 400" xmlns="http://www.w3.org/2000/svg">
  <!-- Head outline -->
  <ellipse cx="200" cy="140" rx="85" ry="100" fill="none" stroke="currentColor" stroke-width="3" stroke-linecap="round"/>

  <!-- Neck -->
  <path d="M 160 210 Q 160 230, 160 240 L 240 240 Q 240 230, 240 210" fill="none" stroke="currentColor" stroke-width="3" stroke-linecap="round"/>

  <!-- Shoulders and upper body -->
  <path d="M 160 240 Q 140 250, 120 270 L 100 340 Q 100 360, 120 370 L 180 370 L 180 300 Q 180 260, 200 260 Q 220 260, 220 300 L 220 370 L 280 370 Q 300 360, 300 340 L 280 270 Q 260 250, 240 240" fill="none" stroke="currentColor" stroke-width="3" stroke-linecap="round" stroke-linejoin="round"/>

  <!-- Hair/head details - abstract style -->
  <path d="M 115 140 Q 110 110, 130 90 Q 160 70, 200 70 Q 240 70, 270 90 Q 290 110, 285 140" fill="none" stroke="currentColor" stroke-width="2.5" stroke-linecap="round"/>

  <!-- Facial features hint - minimal -->
  <circle cx="175" cy="135" r="3" fill="currentColor"/>
  <circle cx="225" cy="135" r="3" fill="currentColor"/>
  <path d="M 190 165 Q 200 168, 210 165" fill="none" stroke="currentColor" stroke-width="2" stroke-linecap="round"/>

  <!-- Additional clothing detail -->
  <line x1="200" y1="260" x2="200" y2="370" stroke="currentColor" stroke-width="2" stroke-linecap="round"/>

  <!-- Collar detail -->
  <path d="M 160 240 L 180 260 L 200 250 L 220 260 L 240 240" fill="none" stroke="currentColor" stroke-width="2" stroke-linecap="round" stroke-linejoin="round"/>
</svg>
